<svg id="Layer_1" data-name="Layer 1" xmlns="http://www.w3.org/2000/svg" viewBox="0 0 154.59 154.59"><defs><style>.cls-1{fill:#6467aa;}.cls-2{fill:#9fc131;}.cls-3{fill:#fff;}</style></defs><circle class="cls-1" cx="77.29" cy="77.29" r="77.29"/><path class="cls-2" d="M473,407.15c-1.58-10.67-.78-21.69-.73-32.5,0-11.06.13-22.11.13-33.16,0-6.88.1-14,2.71-20.32,2.16-5.28,6-9.72,10.08-13.67C491,302,497.65,297.16,505.34,295c14.1-3.95,29.47,1.74,40.78,11.05,6.42,5.28,12,12,14.36,19.95,2,6.91,1.46,14.34-.06,21.38-2.4,11.15-7.49,22.17-16.45,29.24-11.6,9.13-27.79,10.2-42.29,7.41a13.12,13.12,0,0,0-4.31-.39c-3.35.48-5.65,3.5-7.71,6.18A106.74,106.74,0,0,1,473,407.15Z" transform="translate(-439.08 -266.12)"/><circle class="cls-3" cx="77.83" cy="72.57" r="15.3"/></svg>